<?xml version="1.0" standalone="no"?>
<!DOCTYPE svg PUBLIC "-//W3C//DTD SVG 20010904//EN"
 "http://www.w3.org/TR/2001/REC-SVG-20010904/DTD/svg10.dtd">
<svg version="1.0" xmlns="http://www.w3.org/2000/svg"
 width="1280.000000pt" height="640.000000pt" viewBox="0 0 1280.000000 640.000000"
 preserveAspectRatio="xMidYMid meet">
<metadata>
Created by potrace 1.15, written by Peter Selinger 2001-2017
</metadata>
<g transform="translate(0.000000,640.000000) scale(0.100000,-0.100000)"
fill="#000000" stroke="none">
<path d="M10683 3994 c-126 -132 -186 -242 -258 -476 -18 -59 -42 -122 -54
-141 l-21 -34 -732 -7 c-403 -3 -1167 -11 -1698 -16 -531 -5 -1455 -14 -2055
-20 -599 -6 -1517 -15 -2040 -20 -522 -5 -1537 -14 -2255 -20 -718 -6 -1365
-13 -1437 -16 -131 -6 -133 -6 -133 -30 0 -18 6 -24 33 -28 17 -3 671 -8 1452
-11 781 -3 2176 -10 3100 -15 2841 -17 5279 -32 5512 -34 283 -3 268 4 293
-146 33 -194 151 -454 263 -576 28 -31 61 -60 75 -65 27 -10 56 2 66 28 17 43
35 192 45 368 7 105 14 210 17 234 l6 44 351 -7 c194 -3 596 -7 894 -7 539 -1
542 -1 587 21 53 25 81 60 97 121 15 55 6 121 -24 174 -16 29 -37 47 -77 67
l-55 27 -877 3 -878 3 0 252 c0 142 -5 274 -11 302 -14 67 -42 101 -82 101
-27 0 -44 -12 -104 -76z m-142 -567 c-13 -13 -14 5 -3 43 l7 25 3 -29 c2 -16
-1 -33 -7 -39z m2124 -228 c0 -18 -11 -29 -45 -47 -42 -22 -53 -23 -177 -19
-72 3 -140 10 -149 15 -15 8 -13 12 16 27 29 15 53 17 150 13 109 -5 118 -4
150 19 41 27 55 25 55 -8z m-2116 -197 c10 -20 35 -87 55 -149 27 -81 43 -115
60 -127 31 -20 50 -77 41 -123 l-6 -35 -26 33 c-34 46 -75 136 -108 239 -55
175 -63 254 -16 162z"/>
</g>
</svg>
