<?xml version="1.0" standalone="no"?>
<!DOCTYPE svg PUBLIC "-//W3C//DTD SVG 20010904//EN"
 "http://www.w3.org/TR/2001/REC-SVG-20010904/DTD/svg10.dtd">
<svg version="1.0" xmlns="http://www.w3.org/2000/svg"
 width="1280.000000pt" height="640.000000pt" viewBox="0 0 1280.000000 640.000000"
 preserveAspectRatio="xMidYMid meet">
<metadata>
Created by potrace 1.15, written by Peter Selinger 2001-2017
</metadata>
<g transform="translate(0.000000,640.000000) scale(0.100000,-0.100000)"
fill="#000000" stroke="none">
<path d="M10959 4029 c-143 -21 -309 -104 -426 -213 -101 -94 -158 -177 -207
-304 l-42 -107 -3009 -6 c-1656 -3 -3970 -7 -5142 -8 -2126 -1 -2133 -1 -2133
-21 0 -19 7 -20 178 -20 97 0 438 -4 757 -10 319 -5 881 -14 1250 -20 369 -5
959 -15 1313 -20 353 -6 931 -14 1285 -20 353 -5 939 -14 1302 -20 363 -6 937
-15 1275 -20 338 -5 950 -14 1360 -20 1005 -15 1352 -25 1416 -43 99 -28 92
-18 195 -290 55 -147 85 -192 201 -303 86 -82 174 -136 278 -169 30 -10 72
-26 92 -36 41 -21 139 -26 182 -9 14 5 29 18 35 28 6 11 13 127 16 268 4 220
15 358 29 371 2 3 98 -1 213 -7 114 -6 359 -13 543 -14 184 -2 430 -7 545 -11
l211 -8 42 49 c67 78 86 125 78 195 -9 90 -27 116 -104 152 l-67 32 -610 0
c-598 0 -799 -6 -837 -26 -27 -14 -39 -3 -28 26 13 34 13 500 1 550 -5 22 -18
45 -27 52 -20 14 -79 15 -165 2z m12 -160 c9 -16 17 -215 10 -279 -9 -86 -31
-77 -114 48 -60 89 -72 102 -96 102 -35 0 -48 -15 -53 -60 -3 -31 -9 -38 -60
-63 -45 -23 -61 -38 -78 -71 -33 -69 -62 -220 -63 -333 l-2 -102 69 -134 c80
-158 120 -207 224 -281 42 -30 88 -65 100 -79 24 -25 24 -25 3 -32 -12 -4 -35
0 -53 9 -17 9 -35 16 -40 16 -5 0 -24 15 -42 33 -18 17 -64 60 -103 94 -63 55
-78 76 -121 165 -75 153 -86 200 -86 353 -1 111 3 140 23 195 48 134 71 172
165 265 100 100 164 148 217 164 38 11 90 6 100 -10z m1666 -572 c35 -19 53
-44 53 -76 0 -25 -8 -26 -39 -5 -19 14 -29 15 -61 5 -21 -6 -109 -12 -195 -12
-186 -2 -197 3 -176 71 l12 42 187 -4 c154 -3 193 -6 219 -21z"/>
</g>
</svg>
