<?xml version="1.0" standalone="no"?>
<!DOCTYPE svg PUBLIC "-//W3C//DTD SVG 20010904//EN"
 "http://www.w3.org/TR/2001/REC-SVG-20010904/DTD/svg10.dtd">
<svg version="1.0" xmlns="http://www.w3.org/2000/svg"
 width="1280.000000pt" height="640.000000pt" viewBox="0 0 1280.000000 640.000000"
 preserveAspectRatio="xMidYMid meet">
<metadata>
Created by potrace 1.15, written by Peter Selinger 2001-2017
</metadata>
<g transform="translate(0.000000,640.000000) scale(0.100000,-0.100000)"
fill="#000000" stroke="none">
<path d="M11242 4065 c-52 -23 -108 -71 -177 -152 -80 -93 -121 -173 -193
-370 l-58 -158 -74 -7 c-41 -3 -172 -9 -290 -13 -118 -3 -251 -10 -295 -15
-231 -27 -1915 -98 -3145 -132 -591 -17 -3116 -17 -3970 0 -1037 20 -1707 31
-2380 38 l-636 7 -11 -36 -11 -35 132 -6 c72 -3 253 -8 401 -11 481 -10 1409
-36 2665 -75 985 -31 1624 -42 2645 -47 1490 -7 2497 11 4072 73 222 9 509 14
639 12 219 -3 237 -4 250 -22 20 -28 54 -121 65 -180 17 -90 217 -390 308
-462 120 -94 270 -144 435 -144 134 0 222 20 331 74 219 109 371 298 460 574
20 61 40 114 45 117 5 3 55 -2 111 -10 116 -18 150 -12 191 33 38 40 48 65 48
119 0 62 -24 101 -86 140 -76 47 -207 56 -836 57 -342 1 -531 5 -537 11 -6 6
-11 128 -13 320 l-3 310 -25 2 c-14 2 -40 -4 -58 -12z m-122 -360 c-41 -90
-95 -265 -110 -352 -6 -40 -16 -73 -21 -73 -32 0 30 278 89 395 55 111 89 134
42 30z m1040 -607 c19 1 46 3 60 5 24 2 25 1 24 -65 0 -44 -10 -96 -29 -155
-26 -81 -34 -93 -95 -154 -43 -43 -92 -78 -135 -100 -60 -29 -80 -34 -166 -37
-141 -6 -231 26 -331 117 -65 60 -102 124 -128 227 -40 154 -37 156 126 155
71 0 158 4 194 9 36 5 151 6 255 3 105 -4 206 -6 225 -5z"/>
</g>
</svg>
