<?xml version="1.0" standalone="no"?>
<!DOCTYPE svg PUBLIC "-//W3C//DTD SVG 20010904//EN"
 "http://www.w3.org/TR/2001/REC-SVG-20010904/DTD/svg10.dtd">
<svg version="1.0" xmlns="http://www.w3.org/2000/svg"
 width="1280.000000pt" height="640.000000pt" viewBox="0 0 1280.000000 640.000000"
 preserveAspectRatio="xMidYMid meet">
<metadata>
Created by potrace 1.15, written by Peter Selinger 2001-2017
</metadata>
<g transform="translate(0.000000,640.000000) scale(0.100000,-0.100000)"
fill="#000000" stroke="none">
<path d="M10388 4689 c-93 -48 -113 -123 -53 -205 41 -58 68 -104 63 -110 -2
-2 -20 7 -39 20 -19 13 -51 29 -71 35 -36 12 -40 11 -72 -16 -19 -15 -44 -40
-56 -55 -17 -22 -27 -26 -49 -22 -34 7 -97 -30 -105 -61 -3 -11 -10 -72 -16
-136 -15 -147 -4 -210 50 -298 21 -36 38 -67 36 -68 -2 -2 -79 -17 -172 -34
-93 -16 -351 -65 -574 -109 -223 -43 -486 -93 -585 -110 -273 -47 -367 -66
-650 -136 -143 -35 -314 -71 -380 -80 -66 -8 -230 -39 -365 -69 -135 -29 -312
-66 -395 -80 -82 -15 -217 -42 -300 -62 -255 -60 -310 -57 -752 38 -131 27
-431 90 -668 139 -667 138 -872 182 -1260 274 -198 47 -451 104 -563 128
l-202 43 0 55 c0 109 -36 180 -111 219 l-41 22 -35 -21 c-19 -11 -47 -20 -64
-20 -26 0 -29 3 -29 32 0 25 -11 42 -50 80 -49 47 -51 48 -112 48 -65 0 -106
10 -218 53 -36 14 -87 28 -113 32 -26 4 -47 9 -47 11 0 3 6 19 14 38 16 39 43
51 146 69 72 12 77 12 108 -10 36 -24 109 -39 144 -29 46 12 53 23 53 84 0 67
-18 100 -94 168 l-44 39 -96 -1 c-240 -2 -375 -103 -460 -344 -11 -30 -23 -55
-28 -56 -4 -1 -25 -5 -45 -9 -28 -4 -58 -25 -118 -80 -75 -69 -83 -73 -108
-64 -51 20 -260 68 -368 84 -81 13 -116 23 -140 41 -17 13 -63 36 -102 50 -88
33 -108 51 -117 106 -10 64 -29 88 -70 88 -28 0 -38 -6 -62 -42 -33 -49 -84
-70 -217 -87 -139 -19 -206 -57 -206 -116 0 -28 13 -39 75 -62 32 -12 54 -27
62 -43 6 -14 24 -51 38 -83 18 -38 56 -89 111 -146 l83 -88 11 -87 c12 -102
34 -164 78 -229 76 -110 224 -186 442 -228 50 -10 86 -26 160 -74 174 -113
323 -162 467 -153 115 8 159 31 278 149 l102 100 17 -25 c23 -36 87 -66 141
-66 76 0 145 38 184 102 l17 27 45 -29 c81 -54 113 -37 184 99 53 100 68 112
130 100 48 -9 888 -159 1540 -275 171 -30 452 -82 625 -114 173 -32 357 -66
409 -74 52 -8 98 -19 103 -24 5 -5 -62 -20 -154 -36 -396 -67 -1176 -209
-1483 -271 -38 -8 -187 -37 -330 -65 -143 -28 -507 -100 -810 -160 -1133 -225
-1572 -307 -2045 -384 -403 -66 -569 -98 -715 -137 -313 -84 -335 -91 -335
-116 0 -31 235 -10 575 52 132 24 782 134 1445 244 1423 237 1689 285 2643
475 397 80 830 163 962 185 132 22 328 59 435 82 107 22 209 43 225 46 17 2
91 -7 165 -22 74 -14 306 -59 515 -100 1294 -252 1660 -320 2305 -426 756
-124 780 -128 1050 -175 314 -55 658 -123 890 -175 96 -22 234 -53 305 -69
532 -120 904 -181 1106 -183 126 -1 169 12 169 54 0 69 -166 113 -765 205 -93
14 -251 41 -350 59 -99 19 -328 61 -510 95 -858 159 -1342 252 -1880 361 -242
50 -593 121 -780 159 -464 94 -686 135 -910 165 -315 43 -453 74 -570 126
l-50 22 280 49 c572 99 2670 489 2811 523 20 4 22 0 28 -63 17 -163 68 -307
138 -387 l39 -44 67 5 c55 5 80 1 141 -20 64 -22 77 -24 90 -12 26 22 54 34
131 55 l72 19 34 -23 c53 -36 119 -45 324 -45 l188 0 55 50 c48 44 58 49 88
44 28 -5 62 8 208 80 95 47 214 100 263 117 75 27 96 39 130 78 79 90 134 231
159 409 11 77 13 82 36 82 66 0 143 76 286 288 48 70 49 73 33 97 -19 28 -71
45 -144 45 -35 0 -79 10 -135 32 -57 22 -99 32 -138 32 -53 1 -59 -2 -110 -48
-30 -27 -77 -60 -105 -72 -70 -33 -295 -67 -399 -61 -77 4 -82 3 -138 -29
-109 -63 -264 -103 -406 -104 -70 0 -80 -3 -144 -42 -51 -31 -83 -43 -122 -46
-65 -5 -70 3 -91 121 -8 45 -25 108 -38 142 -13 33 -36 121 -50 195 -29 149
-67 242 -113 277 -28 20 -29 20 -65 2z m-7855 -686 c9 -15 -26 -103 -43 -108
-9 -3 -35 1 -57 9 -23 8 -44 12 -47 9 -3 -4 -6 -2 -6 3 0 20 69 76 102 84 46
11 46 11 51 3z m9564 -101 c9 -6 9 -17 -2 -47 -9 -24 -14 -81 -15 -143 l0
-103 -57 -61 c-106 -110 -183 -150 -253 -129 -53 16 -73 9 -92 -33 -15 -30
-21 -34 -70 -39 -97 -12 -205 -45 -365 -113 -215 -90 -313 -98 -389 -32 -72
64 -104 184 -85 323 6 42 11 78 11 80 0 1 12 6 28 10 15 3 36 15 48 26 18 17
26 18 76 8 50 -10 65 -9 146 15 50 14 205 49 344 77 298 59 446 96 548 137 79
31 107 37 127 24z m-10682 -88 c147 -52 225 -74 267 -74 45 0 47 -8 12 -69
-87 -150 -187 -211 -346 -211 -67 0 -70 1 -114 42 -72 66 -121 188 -112 278 3
31 8 36 48 52 71 27 132 22 245 -18z m1011 -251 c-3 -16 -8 -51 -11 -79 -4
-28 -15 -65 -25 -82 -16 -27 -23 -30 -47 -23 -32 8 -73 63 -73 96 0 17 7 24
32 29 41 8 68 33 68 63 0 19 5 23 31 23 28 0 30 -2 25 -27z m-416 -61 c0 -10
-13 -39 -29 -64 -54 -85 -186 -124 -325 -98 -36 7 -66 16 -66 20 0 14 60 60
111 86 50 25 139 49 238 63 31 5 59 9 64 10 4 0 7 -7 7 -17z m154 -246 c112
-47 -8 -146 -176 -146 -68 0 -158 16 -157 29 0 8 213 109 254 121 42 12 42 12
79 -4z"/>
</g>
</svg>
