<?xml version="1.0" standalone="no"?>
<!DOCTYPE svg PUBLIC "-//W3C//DTD SVG 20010904//EN"
 "http://www.w3.org/TR/2001/REC-SVG-20010904/DTD/svg10.dtd">
<svg version="1.0" xmlns="http://www.w3.org/2000/svg"
 width="1280.000000pt" height="1270.000000pt" viewBox="0 0 1280.000000 1270.000000"
 preserveAspectRatio="xMidYMid meet">
<metadata>
Created by potrace 1.15, written by Peter Selinger 2001-2017
</metadata>
<g transform="translate(0.000000,1270.000000) scale(0.100000,-0.100000)"
fill="#000000" stroke="none">
<path d="M2570 12688 c-44 -12 -91 -57 -190 -179 -223 -277 -401 -680 -484
-1090 -49 -239 -69 -609 -47 -845 41 -442 179 -838 400 -1148 73 -102 275
-312 399 -414 200 -166 459 -342 617 -420 195 -96 314 -132 468 -139 138 -7
209 7 323 63 171 84 264 225 264 401 0 159 -129 333 -355 478 -124 80 -208
124 -507 263 -311 146 -468 233 -608 338 -226 171 -349 349 -450 654 -116 350
-140 764 -71 1246 11 76 52 198 149 439 69 173 135 356 130 359 -2 2 -19 -1
-38 -6z"/>
<path d="M5873 10529 c-212 -27 -428 -134 -584 -289 -120 -119 -204 -262 -261
-441 -20 -65 -23 -94 -23 -234 1 -135 5 -172 24 -240 86 -303 306 -554 584
-665 147 -59 218 -72 377 -73 159 -1 228 11 371 63 353 129 610 473 645 862
11 125 -41 341 -117 488 -187 362 -610 582 -1016 529z"/>
<path d="M6482 7990 c-162 -23 -360 -104 -416 -170 -68 -82 -75 -218 -17 -333
66 -130 179 -242 322 -321 165 -90 507 -186 769 -215 52 -6 133 -15 180 -21
156 -18 529 -49 865 -72 257 -17 1051 -17 1215 0 210 22 557 61 701 80 l136
18 7 -270 c4 -149 9 -272 11 -274 6 -6 51 34 305 273 118 112 241 225 274 252
l58 50 112 6 c61 4 490 7 954 7 l842 0 0 70 0 70 -939 0 c-542 0 -950 4 -964
9 -31 12 -152 116 -376 325 -101 94 -206 190 -232 214 l-49 44 0 -277 0 -277
-77 7 c-95 8 -585 61 -703 75 -47 6 -121 15 -165 20 -228 27 -485 58 -560 69
-227 34 -548 136 -960 306 -498 206 -735 291 -885 320 -101 19 -320 27 -408
15z"/>
<path d="M3230 5979 c-205 -32 -347 -127 -467 -310 -169 -260 -231 -597 -263
-1429 -30 -796 -45 -1037 -75 -1185 -38 -192 -124 -411 -275 -702 -237 -455
-504 -843 -897 -1298 -269 -313 -554 -554 -1056 -898 -211 -145 -205 -137
-118 -151 57 -10 300 61 566 165 778 305 1510 877 2082 1629 266 350 512 832
673 1321 75 225 220 809 294 1179 65 322 99 560 117 818 18 247 -5 415 -81
577 -47 102 -103 176 -182 243 l-62 52 -101 -1 c-55 -1 -125 -5 -155 -10z"/>
<path d="M4334 5660 c-141 -15 -244 -65 -308 -151 -69 -92 -91 -169 -91 -319
0 -123 1 -126 36 -201 78 -163 216 -339 387 -492 48 -44 166 -140 262 -215
664 -515 762 -613 815 -814 12 -45 11 -51 -16 -108 -77 -164 -258 -371 -594
-679 -264 -242 -403 -358 -945 -791 -168 -133 -367 -295 -443 -358 -135 -112
-138 -116 -115 -128 12 -7 32 -13 43 -14 20 0 480 152 691 228 353 128 616
253 1124 535 556 308 984 662 1105 912 85 176 113 455 66 655 -122 525 -464
1079 -909 1474 -257 228 -402 320 -615 391 -182 60 -366 88 -493 75z"/>
</g>
</svg>
