<?xml version="1.0" encoding="utf-8"?><!-- Uploaded to: SVG Repo, www.svgrepo.com, Generator: SVG Repo Mixer Tools -->
<svg width="800px" height="800px" viewBox="0 0 400 400" fill="none" xmlns="http://www.w3.org/2000/svg">
<path d="M177.37 74.8395C164.609 66.5402 146.557 61.3276 135.083 74.8395C114.912 98.6049 149.425 151.636 178.515 134.852C216.742 112.79 205.002 51.4872 157.939 60.9934" stroke="#000000" stroke-opacity="0.9" stroke-width="16" stroke-linecap="round" stroke-linejoin="round"/>
<path d="M175.77 70.7697C171.07 90.9196 170.385 113.861 170.385 134.039" stroke="#000000" stroke-opacity="0.9" stroke-width="16" stroke-linecap="round" stroke-linejoin="round"/>
<path d="M53.2689 112.5C66.7144 188.002 194.943 164.1 251.154 164.1" stroke="#000000" stroke-opacity="0.9" stroke-width="16" stroke-linecap="round" stroke-linejoin="round"/>
<path d="M156.839 167.692C158.842 227.557 125.028 306.967 66.7309 331.923" stroke="#000000" stroke-opacity="0.9" stroke-width="16" stroke-linecap="round" stroke-linejoin="round"/>
<path d="M148.846 241.73C188.361 247.043 223.27 247.634 225.619 267.31C227.833 285.863 235 321.389 235 340" stroke="#000000" stroke-opacity="0.9" stroke-width="16" stroke-linecap="round" stroke-linejoin="round"/>
<path d="M256.538 156.923C256.538 160.96 256.538 165.001 256.538 169.039" stroke="#000000" stroke-opacity="0.9" stroke-width="16" stroke-linecap="round" stroke-linejoin="round"/>
<path d="M264.615 162.307C291.004 161.829 328.004 160.094 346.73 159.615" stroke="#000000" stroke-opacity="0.9" stroke-width="16" stroke-linecap="round" stroke-linejoin="round"/>
</svg>