<?xml version="1.0" encoding="iso-8859-1"?>
<!-- Uploaded to: SVG Repo, www.svgrepo.com, Generator: SVG Repo Mixer Tools -->
<svg fill="#000000" height="800px" width="800px" version="1.1" id="Capa_1" xmlns="http://www.w3.org/2000/svg" xmlns:xlink="http://www.w3.org/1999/xlink" 
	 viewBox="0 0 64 64" xml:space="preserve">
<g id="Fencing_1_">
	<path id="Fencing" d="M63.707,2.207c0.391-0.391,0.391-1.023,0-1.414c-0.391-0.391-1.023-0.391-1.414,0L32,31.086L1.707,0.793
		c-0.391-0.391-1.023-0.391-1.414,0c-0.391,0.391-0.391,1.023,0,1.414L30.586,32.5L18.314,44.772
		c-4.518-3.89-11.186-4.383-16.237-1.075c-0.252,0.165-0.416,0.434-0.447,0.734c-0.031,0.299,0.075,0.597,0.288,0.81l7.964,7.964
		l-8.589,8.588c-0.391,0.391-0.391,1.023,0,1.414C1.488,63.402,1.744,63.5,2,63.5c0.256,0,0.512-0.098,0.707-0.293l8.589-8.588
		l7.964,7.964c0.189,0.188,0.443,0.293,0.707,0.293c0.034,0,0.068-0.002,0.103-0.005c0.299-0.031,0.569-0.195,0.734-0.447
		c3.308-5.05,2.815-11.718-1.076-16.237L32,33.914l12.273,12.272c-3.891,4.519-4.383,11.187-1.075,16.237
		c0.165,0.252,0.435,0.416,0.734,0.447c0.034,0.003,0.068,0.005,0.103,0.005c0.264,0,0.518-0.104,0.707-0.293l7.964-7.964
		l8.588,8.588C61.488,63.402,61.744,63.5,62,63.5c0.256,0,0.512-0.098,0.707-0.293c0.391-0.391,0.391-1.023,0-1.414l-8.588-8.588
		l7.964-7.964c0.213-0.213,0.318-0.51,0.288-0.81c-0.031-0.299-0.195-0.569-0.447-0.734c-5.049-3.309-11.718-2.816-16.237,1.076
		L33.414,32.5L63.707,2.207z M19.755,60.25L4.25,44.745c4.391-2.233,9.846-1.425,13.388,2.118
		C21.182,50.405,21.99,55.859,19.755,60.25z M54.529,43.498c1.785,0,3.578,0.411,5.221,1.247L44.245,60.25
		c-2.234-4.391-1.426-9.845,2.118-13.387C48.58,44.645,51.544,43.498,54.529,43.498z"/>
</g>
</svg>